<?xml version="1.0" encoding="UTF-8"?>
<svg width="24px" height="32px" viewBox="0 0 24 32" version="1.1" xmlns="http://www.w3.org/2000/svg" xmlns:xlink="http://www.w3.org/1999/xlink">
    <!-- Generator: Sketch 51.3 (57544) - http://www.bohemiancoding.com/sketch -->
    <title>Group 21</title>
    <desc>Created with Sketch.</desc>
    <defs></defs>
    <g id="Page-1" stroke="none" stroke-width="1" fill="none" fill-rule="evenodd">
        <g id="Retarget-LP-01" transform="translate(-967.000000, -4506.000000)" fill="#34376A" fill-rule="nonzero">
            <g id="Group-21" transform="translate(967.000000, 4506.000000)">
                <g id="Group-12">
                    <g id="Group-11">
                        <path d="M22,32 L2,32 C1.46792932,32.0054022 0.956076706,31.7964237 0.579826527,31.4201735 C0.203576349,31.0439233 -0.00540215185,30.5320707 1.31883388e-12,30 L1.31883388e-12,6 C-0.00540215185,5.46792932 0.203576349,4.95607671 0.579826527,4.57982653 C0.956076706,4.20357635 1.46792932,3.99459785 2,4 L7,4 L7,6 L2,6 L2,30 L22,30 L22,6 L17,6 L17,4 L22,4 C22.5320707,3.99459785 23.0439233,4.20357635 23.4201735,4.57982653 C23.7964237,4.95607671 24.0054022,5.46792932 24,6 L24,30 C24.0054022,30.5320707 23.7964237,31.0439233 23.4201735,31.4201735 C23.0439233,31.7964237 22.5320707,32.0054022 22,32 Z" id="Shape"></path>
                        <path d="M17,8 L7,8 C6.44771525,8 6,7.55228475 6,7 L6,3 C6,2.44771525 6.44771525,2 7,2 L9.172,2 C9.59613777,0.801984722 10.729121,0.00120727125 12,0.00120727125 C13.270879,0.00120727125 14.4038622,0.801984722 14.828,2 L17,2 C17.5522847,2 18,2.44771525 18,3 L18,7 C18,7.55228475 17.5522847,8 17,8 Z M8,6 L16,6 L16,4 L14,4 C13.4477153,4 13,3.55228475 13,3 C13,2.44771525 12.5522847,2 12,2 C11.4477153,2 11,2.44771525 11,3 C11,3.55228475 10.5522847,4 10,4 L8,4 L8,6 Z" id="Shape"></path>
                        <g id="Group-10" transform="translate(4.000000, 10.000000)">
                            <path d="M9,18 L1,18 C0.44771525,18 0,17.5522847 0,17 C0,16.4477153 0.44771525,16 1,16 L9,16 C9.55228475,16 10,16.4477153 10,17 C10,17.5522847 9.55228475,18 9,18 Z" id="Shape"></path>
                            <path d="M15,14 L1,14 C0.44771525,14 0,13.5522847 0,13 C0,12.4477153 0.44771525,12 1,12 L15,12 C15.5522847,12 16,12.4477153 16,13 C16,13.5522847 15.5522847,14 15,14 Z" id="Shape"></path>
                            <path d="M8,10 C5.23857625,10 3,7.76142375 3,5 C3,2.23857625 5.23857625,0 8,0 C10.7614237,0 13,2.23857625 13,5 C13,7.76142375 10.7614237,10 8,10 Z M8,2 C6.34314575,2 5,3.34314575 5,5 C5,6.65685425 6.34314575,8 8,8 C9.65685425,8 11,6.65685425 11,5 C11,3.34314575 9.65685425,2 8,2 Z" id="Shape"></path>
                            <path d="M12,6 L8,6 C7.44771525,6 7,5.55228475 7,5 L7,1 C7,0.44771525 7.44771525,0 8,0 C8.55228475,0 9,0.44771525 9,1 L9,4 L12,4 C12.5522847,4 13,4.44771525 13,5 C13,5.55228475 12.5522847,6 12,6 Z" id="Shape"></path>
                        </g>
                    </g>
                </g>
            </g>
        </g>
    </g>
</svg>