<?xml version="1.0" encoding="UTF-8"?>
<svg width="32px" height="32px" viewBox="0 0 32 32" version="1.1" xmlns="http://www.w3.org/2000/svg" xmlns:xlink="http://www.w3.org/1999/xlink">
    <!-- Generator: Sketch 51.3 (57544) - http://www.bohemiancoding.com/sketch -->
    <title>Group 16</title>
    <desc>Created with Sketch.</desc>
    <defs></defs>
    <g id="Page-1" stroke="none" stroke-width="1" fill="none" fill-rule="evenodd" stroke-linecap="round" stroke-linejoin="round">
        <g id="Retarget-LP-01" transform="translate(-164.000000, -4339.000000)" stroke="#34376A" stroke-width="2">
            <g id="Group-16" transform="translate(165.000000, 4340.000000)">
                <path d="M12,30 C14.209139,30 16,28.209139 16,26 L30,26 C30,28.209139 28.209139,30 26,30 L12,30 Z" id="Shape"></path>
                <path d="M4,0 L22,0 C24.209139,2.22044605e-16 26,1.790861 26,4 L26,26" id="Shape"></path>
                <path d="M8,4 L0,4 C-2.22044605e-16,1.790861 1.790861,4.4408921e-16 4,0 C6.209139,-4.4408921e-16 8,1.790861 8,4 L8,26 C8,28.209139 9.790861,30 12,30" id="Shape"></path>
                <path d="M20,10 L18,10 C16.8954305,10 16,10.8954305 16,12 C16,13.1045695 16.8954305,14 18,14 C19.1045695,14 20,14.8954305 20,16 C20,17.1045695 19.1045695,18 18,18 L16,18" id="Shape"></path>
                <path d="M18,20 L18,18" id="Shape"></path>
                <path d="M18,10 L18,8" id="Shape"></path>
            </g>
        </g>
    </g>
</svg>