<?xml version="1.0" encoding="UTF-8"?>
<svg width="32px" height="26px" viewBox="0 0 32 26" version="1.1" xmlns="http://www.w3.org/2000/svg" xmlns:xlink="http://www.w3.org/1999/xlink">
    <!-- Generator: Sketch 51.3 (57544) - http://www.bohemiancoding.com/sketch -->
    <title>Group 20</title>
    <desc>Created with Sketch.</desc>
    <defs></defs>
    <g id="Page-1" stroke="none" stroke-width="1" fill="none" fill-rule="evenodd">
        <g id="Retarget-LP-01" transform="translate(-962.000000, -4337.000000)" fill="#34376A" fill-rule="nonzero">
            <g id="Group-20" transform="translate(962.000000, 4337.000000)">
                <g id="Group-9">
                    <g id="Group-8">
                        <path d="M30,22 L2,22 C0.8954305,22 1.3527075e-16,21.1045695 0,20 L0,2 C-1.3527075e-16,0.8954305 0.8954305,0 2,0 L30,0 C31.1045695,0 32,0.8954305 32,2 L32,20 C32,21.1045695 31.1045695,22 30,22 Z M2,2 L2,20 L30,20 L30,2 L2,2 Z" id="Shape"></path>
                        <path d="M21,26 L11,26 C10.5949822,26.0007246 10.229523,25.7570743 10.0744314,25.3829266 C9.91933972,25.0087789 10.0052463,24.5780284 10.292,24.292 L14.292,20.292 C14.5780284,20.0052463 15.0087789,19.9193397 15.3829266,20.0744314 C15.7570743,20.229523 16.0007246,20.5949822 16,21 C16.0008935,20.5957103 16.2451367,20.2317322 16.6189211,20.0776665 C16.9927054,19.9236008 17.4224859,20.0097612 17.708,20.296 L21.708,24.296 C21.9918997,24.582398 22.0759932,25.0112942 21.9212637,25.3836941 C21.7665342,25.7560939 21.4032643,25.9991138 21,26 Z M13.414,24 L18.586,24 L16.292,21.708 C16.1045721,21.5200985 15.999526,21.2653977 16,21 C15.9994152,21.2640117 15.8944495,21.5170799 15.708,21.704 L13.414,24 Z" id="Shape"></path>
                        <path d="M31,18 L1,18 C0.44771525,18 6.76353751e-17,17.5522847 0,17 C-6.76353751e-17,16.4477153 0.44771525,16 1,16 L31,16 C31.5522847,16 32,16.4477153 32,17 C32,17.5522847 31.5522847,18 31,18 Z" id="Shape"></path>
                        <path d="M22,14 C20.7866133,14 19.6927044,13.2690735 19.2283614,12.1480503 C18.7640184,11.0270271 19.0206857,9.73667364 19.8786797,8.87867966 C20.7366736,8.02068567 22.0270271,7.7640184 23.1480503,8.2283614 C24.2690735,8.6927044 25,9.78661327 25,11 C25,12.6568542 23.6568542,14 22,14 Z M22,10 C21.4477153,10 21,10.4477153 21,11 C21,11.5522847 21.4477153,12 22,12 C22.5522847,12 23,11.5522847 23,11 C23,10.4477153 22.5522847,10 22,10 Z" id="Shape"></path>
                        <path d="M10,10 C8.34314575,10 7,8.65685425 7,7 C7,5.34314575 8.34314575,4 10,4 C11.6568542,4 13,5.34314575 13,7 C13,7.79564947 12.6839295,8.55871121 12.1213203,9.12132034 C11.5587112,9.68392948 10.7956495,10 10,10 Z M10,6 C9.44771525,6 9,6.44771525 9,7 C9,7.55228475 9.44771525,8 10,8 C10.5522847,8 11,7.55228475 11,7 C11,6.44771525 10.5522847,6 10,6 Z" id="Shape"></path>
                        <path d="M20.12,11.38 C20.0111418,11.3811297 19.9028993,11.3635403 19.8,11.328 L11.562,8.566 C11.2107018,8.46228018 10.9442219,8.17479527 10.8674024,7.81665141 C10.790583,7.45850755 10.9157185,7.08702377 11.1935765,6.84835415 C11.4714345,6.60968454 11.8575453,6.5420269 12.2,6.672 L20.44,9.434 C20.9045173,9.58995149 21.1876103,10.0595159 21.108666,10.5431118 C21.0297217,11.0267077 20.6119971,11.3818676 20.122,11.382 L20.12,11.38 Z" id="Shape"></path>
                        <path d="M23.662,10.88 C23.2214929,10.8796585 22.8330915,10.5911063 22.7055839,10.1694566 C22.5780764,9.74780693 22.7414978,9.29238249 23.108,9.048 L30.448,4.168 C30.7451443,3.95730824 31.1333494,3.9248558 31.461351,4.0832878 C31.7893525,4.24171979 32.0052612,4.5659725 32.024948,4.92970065 C32.0446348,5.2934288 31.8649853,5.63909109 31.556,5.832 L24.216,10.712 C24.0519366,10.8213972 23.8591916,10.879847 23.662,10.88 Z" id="Shape"></path>
                        <path d="M1,14 C0.559492889,13.9996585 0.171091547,13.7111063 0.0435839499,13.2894566 C-0.0839236468,12.8678069 0.0794978412,12.4123825 0.446,12.168 L7.786,7.288 C8.08314427,7.07730824 8.47134938,7.0448558 8.79935096,7.2032878 C9.12735254,7.36171979 9.3432612,7.6859725 9.36294798,8.04970065 C9.38263477,8.4134288 9.20298526,8.75909109 8.894,8.952 L1.554,13.832 C1.38993657,13.9413972 1.19719163,13.999847 1,14 Z" id="Shape"></path>
                    </g>
                </g>
            </g>
        </g>
    </g>
</svg>