<?xml version="1.0" encoding="UTF-8"?>
<svg width="56px" height="55px" viewBox="0 0 56 55" version="1.1" xmlns="http://www.w3.org/2000/svg" xmlns:xlink="http://www.w3.org/1999/xlink">
    <title>Group 46 Copy 2</title>
    <defs>
        <polygon id="path-1" points="0 -1.49562009e-15 47.5379721 -1.49562009e-15 47.5379721 47.2658067 0 47.2658067"></polygon>
    </defs>
    <g id="Page-1" stroke="none" stroke-width="1" fill="none" fill-rule="evenodd">
        <g id="WP-PLUG-IN-PRICING-PLAN" transform="translate(-750.000000, -109.000000)">
            <g id="Group-45" transform="translate(750.000000, 111.000000)">
                <path d="M37.2306816,29.9187712 C34.035636,33.0953818 28.2922506,32.5541365 24.4275032,28.7122747 C20.5627558,24.870879 20.0183591,19.1600662 23.2148126,15.9829896 C25.5383541,13.6711594 29.2106854,13.3373682 32.5268123,14.8002686 L33.0031595,14.3266209 L33.1082843,13.9471431 C28.1181375,11.1336938 22.2180034,11.3714501 18.6048048,14.9639009 C14.0928824,19.4486371 14.8320417,27.4796715 20.2492584,32.8660168 C25.6674137,38.2537607 33.7460733,38.9884743 38.2575265,34.5018733 C41.8106537,30.9690946 42.0894223,25.2359049 39.4040448,20.327403 L38.3926871,20.5884687 C39.9001027,23.9049359 39.5734647,27.5906244 37.2306816,29.9187712" id="Fill-1" fill="#E87469" fill-rule="nonzero"></path>
                <path d="M33.4271788,24.7078062 C32.2938012,25.8345845 30.2570065,25.6429809 28.8861593,24.2798449 C27.515312,22.9176412 27.3224266,20.8920509 28.4558043,19.7652725 C29.2494033,18.9760149 30.4846207,18.8431511 31.6245686,19.2967528 L31.7296935,18.9172751 C30.0124974,18.0548258 28.0460988,18.1858249 26.8207369,19.4039762 C25.2208676,20.9946124 25.4827412,23.8430259 27.4045554,25.7534677 C29.3259005,27.6643755 32.1910228,27.9245088 33.7913614,26.3334065 C34.9735471,25.1576783 35.1331116,23.2952541 34.3615701,21.6309601 L33.9725142,21.7316569 C34.346083,22.8150796 34.1799481,23.9595731 33.4271788,24.7078062" id="Fill-3" fill="#E87469" fill-rule="nonzero"></path>
                <g id="Fill-5-Clipped" transform="translate(0.000000, 5.734193)">
                    <mask id="mask-2" fill="white">
                        <use xlink:href="#path-1"></use>
                    </mask>
                    <g id="path-1"></g>
                    <path d="M42.9592838,13.6734656 L41.8948943,13.948517 C46.4537476,21.445299 46.2566384,30.440878 40.7920217,35.8724437 C34.1283243,42.4993174 22.1267231,41.3492296 14.0391467,33.3065406 C5.95203952,25.2643176 4.79425788,13.3340801 11.4584246,6.70813883 C16.9882751,1.21084056 26.1913955,1.06958535 33.7852605,5.77343029 L34.0720073,4.73988974 C24.420229,-1.66088242 12.4721289,-1.69631277 5.38511604,5.35013087 C-2.9324211,13.6184554 -1.44940934,28.5448882 8.68857165,38.6276194 C18.827022,48.7056888 33.8415773,50.1811764 42.1577065,41.9137843 C49.1743233,34.9340056 49.2081134,23.2196136 42.9592838,13.6734656" id="Fill-5" fill="#E87469" fill-rule="nonzero" mask="url(#mask-2)"></path>
                </g>
                <polygon id="Combined-Shape-Copy" stroke="#FFFFFF" stroke-width="2.76" fill="#34376A" fill-rule="nonzero" points="40.8171833 7.21814785 48.0444682 0 54 5.9480025 46.8020214 13.1368811 52.0931344 13.1368811 53.4884863 13.1368811 53.4884863 21.5486269 32.3947894 21.5486269 32.3947894 0.481597844 40.8171833 0.481597844"></polygon>
            </g>
        </g>
    </g>
</svg>