<?xml version="1.0" encoding="UTF-8"?>
<svg width="32px" height="32px" viewBox="0 0 32 32" version="1.1" xmlns="http://www.w3.org/2000/svg" xmlns:xlink="http://www.w3.org/1999/xlink">
    <!-- Generator: Sketch 51.3 (57544) - http://www.bohemiancoding.com/sketch -->
    <title>Group 17</title>
    <desc>Created with Sketch.</desc>
    <defs></defs>
    <g id="Page-1" stroke="none" stroke-width="1" fill="none" fill-rule="evenodd">
        <g id="Retarget-LP-01" transform="translate(-163.000000, -4505.000000)" fill="#34376A" fill-rule="nonzero">
            <g id="Group-17" transform="translate(163.000000, 4505.000000)">
                <g id="Group-2">
                    <path d="M5,18 L1,18 C0.44771525,18 6.76353751e-17,17.5522847 0,17 L0,11 C-6.76353751e-17,10.4477153 0.44771525,10 1,10 L5,10 C5.55228475,10 6,10.4477153 6,11 C6,11.5522847 5.55228475,12 5,12 L2,12 L2,16 L5,16 C5.55228475,16 6,16.4477153 6,17 C6,17.5522847 5.55228475,18 5,18 Z" id="Shape"></path>
                    <path d="M15,20 L5,20 C4.44771525,20 4,19.5522847 4,19 L4,9 C4,8.44771525 4.44771525,8 5,8 L15,8 C15.5522847,8 16,8.44771525 16,9 L16,19 C16,19.5522847 15.5522847,20 15,20 Z M6,18 L14,18 L14,10 L6,10 L6,18 Z" id="Shape"></path>
                    <path d="M31,28 C30.7012095,28.0000929 30.4180308,27.8665734 30.228,27.636 C26.4437623,23.0486149 20.8964507,20.2749591 14.956,20 C14.6903307,19.9885927 14.4401449,19.8718423 14.2607493,19.675558 C14.0813537,19.4792737 13.9875232,19.2196212 14,18.954 C14.0053716,18.6867652 14.1201063,18.4334269 14.3174215,18.2531216 C14.5147367,18.0728164 14.7773646,17.9813234 15.044,18 C20.6472311,18.2588568 25.9641761,20.5504473 30,24.446 L30,3.554 C25.9641761,7.44955275 20.6472311,9.74114325 15.044,10 C14.7750628,10.0286864 14.5067388,9.94064134 14.3070805,9.75819494 C14.1074222,9.57574855 13.9956093,9.31642717 14,9.046 C13.9875232,8.78037876 14.0813537,8.52072634 14.2607493,8.32444203 C14.4401449,8.12815772 14.6903307,8.01140735 14.956,8 C20.8965798,7.72553647 26.4440813,4.95178575 30.228,0.364 C30.4963442,0.0380804958 30.9404599,-0.0842073925 31.3378166,0.0584104497 C31.7351732,0.201028292 32.0001594,0.577824545 32,1 L32,27 C32.0003605,27.4222786 31.7354261,27.7992699 31.338,27.942 C31.2294337,27.9803458 31.1151392,27.9999584 31,28 Z" id="Shape"></path>
                    <path d="M11.496,32 C11.361669,31.9999867 11.2276736,31.9865872 11.096,31.96 C10.425801,31.825277 9.87199875,31.3553384 9.63,30.716 L5.366,19.352 C5.17159577,18.8350615 5.43306147,18.2584042 5.95,18.064 C6.46693853,17.8695958 7.04359577,18.1310615 7.238,18.648 L11.496,30 L13.896,27.6 L9.8,19.448 C9.55257643,18.9509437 9.75494373,18.3474236 10.252,18.1 C10.7490563,17.8525764 11.3525764,18.0549437 11.6,18.552 L15.68,26.712 C16.0692953,27.4819656 15.9209469,28.4147868 15.312,29.026 L12.912,31.408 C12.5413057,31.791386 12.0292629,32.0054604 11.496,32 Z" id="Shape"></path>
                </g>
            </g>
        </g>
    </g>
</svg>