<?xml version="1.0" encoding="UTF-8"?>
<svg width="32px" height="26px" viewBox="0 0 32 26" version="1.1" xmlns="http://www.w3.org/2000/svg" xmlns:xlink="http://www.w3.org/1999/xlink">
    <!-- Generator: Sketch 51.3 (57544) - http://www.bohemiancoding.com/sketch -->
    <title>Group 19</title>
    <desc>Created with Sketch.</desc>
    <defs></defs>
    <g id="Page-1" stroke="none" stroke-width="1" fill="none" fill-rule="evenodd">
        <g id="Retarget-LP-01" transform="translate(-581.000000, -4344.000000)" fill="#34376A" fill-rule="nonzero">
            <g id="Group-19" transform="translate(581.000000, 4344.000000)">
                <g id="Group-3">
                    <path d="M28,20 C27.4477153,20 27,19.5522847 27,19 L27,14 L5,14 L5,19 C5,19.5522847 4.55228475,20 4,20 C3.44771525,20 3,19.5522847 3,19 L3,13 C3,12.4477153 3.44771525,12 4,12 L28,12 C28.5522847,12 29,12.4477153 29,13 L29,19 C29,19.5522847 28.5522847,20 28,20 Z" id="Shape"></path>
                    <path d="M16,20 C15.4477153,20 15,19.5522847 15,19 L15,7 C15,6.44771525 15.4477153,6 16,6 C16.5522847,6 17,6.44771525 17,7 L17,19 C17,19.5522847 16.5522847,20 16,20 Z" id="Shape"></path>
                    <path d="M16,26 C13.790861,26 12,24.209139 12,22 C12,19.790861 13.790861,18 16,18 C18.209139,18 20,19.790861 20,22 C20,24.209139 18.209139,26 16,26 Z M16,20 C14.8954305,20 14,20.8954305 14,22 C14,23.1045695 14.8954305,24 16,24 C17.1045695,24 18,23.1045695 18,22 C18,20.8954305 17.1045695,20 16,20 Z" id="Shape"></path>
                    <path d="M4,26 C1.790861,26 2.705415e-16,24.209139 0,22 C-2.705415e-16,19.790861 1.790861,18 4,18 C6.209139,18 8,19.790861 8,22 C8,24.209139 6.209139,26 4,26 Z M4,20 C2.8954305,20 2,20.8954305 2,22 C2,23.1045695 2.8954305,24 4,24 C5.1045695,24 6,23.1045695 6,22 C6,20.8954305 5.1045695,20 4,20 Z" id="Shape"></path>
                    <path d="M28,26 C25.790861,26 24,24.209139 24,22 C24,19.790861 25.790861,18 28,18 C30.209139,18 32,19.790861 32,22 C32,24.209139 30.209139,26 28,26 Z M28,20 C26.8954305,20 26,20.8954305 26,22 C26,23.1045695 26.8954305,24 28,24 C29.1045695,24 30,23.1045695 30,22 C30,20.8954305 29.1045695,20 28,20 Z" id="Shape"></path>
                    <path d="M16,8 C13.790861,8 12,6.209139 12,4 C12,1.790861 13.790861,4.4408921e-16 16,0 C18.209139,-4.4408921e-16 20,1.790861 20,4 C20,5.06086596 19.5785726,6.07828161 18.8284271,6.82842712 C18.0782816,7.57857264 17.060866,8 16,8 Z M16,2 C14.8954305,2 14,2.8954305 14,4 C14,5.1045695 14.8954305,6 16,6 C17.1045695,6 18,5.1045695 18,4 C18,3.46956702 17.7892863,2.96085919 17.4142136,2.58578644 C17.0391408,2.21071368 16.530433,2 16,2 Z" id="Shape"></path>
                </g>
            </g>
        </g>
    </g>
</svg>